<svg width="160" height="160" viewBox="0 0 160 160" fill="none" xmlns="http://www.w3.org/2000/svg">
<path d="M80.0001 0C64.1775 0 48.7104 4.69192 35.5544 13.4824C22.3985 22.2729 12.1447 34.7672 6.08967 49.3853C0.0346631 64.0034 -1.5496 80.0887 1.53721 95.6072C4.62403 111.126 12.2433 125.38 23.4315 136.569C34.6197 147.757 48.8743 155.376 64.3928 158.463C79.9113 161.55 95.9966 159.965 110.615 153.91C125.233 147.855 137.727 137.602 146.518 124.446C155.308 111.29 160 95.8225 160 80C160 58.7827 151.572 38.4344 136.569 23.4315C121.566 8.42854 101.217 0 80.0001 0V0ZM80.0001 156.799C64.8107 156.799 49.9624 152.295 37.3329 143.856C24.7034 135.417 14.8599 123.423 9.04713 109.39C3.2344 95.3565 1.71353 79.9148 4.67683 65.0173C7.64013 50.1197 14.9545 36.4355 25.695 25.695C36.4356 14.9545 50.1198 7.6401 65.0173 4.67679C79.9149 1.71349 95.3565 3.23437 109.39 9.04709C123.423 14.8598 135.417 24.7033 143.856 37.3328C152.295 49.9623 156.799 64.8106 156.799 80C156.799 100.368 148.708 119.902 134.305 134.305C119.902 148.708 100.368 156.799 80.0001 156.799Z" fill="#02474C"/>
</svg>
