<svg width="65" height="65" viewBox="0 0 413 110" fill="none" xmlns="http://www.w3.org/2000/svg">
<g clip-path="url(#clip0_29_14)">
<path d="M54.6868 0C43.8708 0 33.2977 3.22569 24.3045 9.26917C15.3113 15.3126 8.30192 23.9025 4.16281 33.9524C0.0236948 44.0023 -1.05929 55.061 1.05082 65.73C3.16092 76.3989 8.36933 86.199 16.0174 93.8909C23.6655 101.583 33.4097 106.821 44.0179 108.943C54.6261 111.065 65.6218 109.976 75.6145 105.813C85.6072 101.651 94.1481 94.6011 100.157 85.5564C106.166 76.5117 109.374 65.878 109.374 55C109.374 40.4131 103.612 26.4236 93.3562 16.1091C83.1004 5.79463 69.1906 0 54.6868 0V0ZM54.6868 107.8C44.3034 107.8 34.1532 104.703 25.5198 98.9016C16.8863 93.0999 10.1573 84.8536 6.18377 75.2057C2.21022 65.5577 1.17056 54.9414 3.19626 44.6992C5.22195 34.457 10.222 25.049 17.5642 17.6648C24.9063 10.2805 34.2608 5.25184 44.4447 3.21454C54.6286 1.17724 65.1844 2.22285 74.7774 6.21916C84.3704 10.2155 92.5697 16.983 98.3384 25.6659C104.107 34.3488 107.186 44.5571 107.186 55C107.186 69.0034 101.655 82.4333 91.8094 92.3352C81.9639 102.237 68.6105 107.8 54.6868 107.8Z" fill="#02474C"/>
<path d="M92.9674 55.715V54.285H98.4361C98.3408 47.0483 96.4617 39.9483 92.9674 33.6215L88.2479 36.3715L87.4987 35.123L92.2182 32.373C88.5124 26.1655 83.346 20.9695 77.1739 17.2425L74.4395 21.989L73.2091 21.274L75.9434 16.5275C69.6551 13.0035 62.5955 11.1043 55.3976 11V16.5H53.9757V11C46.7769 11.1076 39.7172 13.0107 33.4299 16.5385L36.1643 21.285L34.9229 22L32.1885 17.2535C26.0204 20.9819 20.8578 26.1778 17.1551 32.384L21.8746 35.134L21.1637 36.3715L16.4442 33.6215C12.9365 39.9448 11.0443 47.045 10.9373 54.285H16.4059V55.715H10.9373C11.0409 62.9541 12.9294 70.0542 16.4333 76.3785L21.1527 73.6285L21.8637 74.866L17.1442 77.616C20.85 83.8235 26.0164 89.0195 32.1885 92.7465L34.9229 88L36.1533 88.715L33.419 93.4615C39.7096 96.9911 46.7732 98.8942 53.9757 99V93.5H55.3976V99C62.5931 98.9042 69.6526 97.0144 75.9434 93.5L73.2091 88.7535L74.4395 88.0385L77.1739 92.785C83.346 89.058 88.5124 83.862 92.2182 77.6545L87.4987 74.9045L88.2096 73.667L92.9291 76.417C96.4235 70.0902 98.3025 62.9902 98.3978 55.7535L92.9674 55.715Z" fill="#02474C"/>
<path d="M55.3977 11V2.2H53.9758V11H54.6868H55.3977Z" fill="#02474C"/>
<path d="M29.0497 8.9155L27.8247 9.6305L32.1997 17.2535C32.6043 17.006 33.0145 16.7695 33.4301 16.5385L29.0497 8.9155Z" fill="#02474C"/>
<path d="M9.57567 27.984L8.86475 29.216L16.4443 33.616C16.674 33.198 16.9092 32.7855 17.1553 32.3785L9.57567 27.984Z" fill="#02474C"/>
<path d="M10.9374 54.285H2.1875V55.715H10.9374C10.9374 55.4785 10.9374 55.2365 10.9374 55C10.9374 54.7635 10.9374 54.5215 10.9374 54.285Z" fill="#02474C"/>
<path d="M8.86475 80.784L9.57567 82.016L17.1553 77.616C16.9092 77.209 16.674 76.7965 16.4443 76.3785L8.86475 80.784Z" fill="#02474C"/>
<path d="M27.8247 100.37L29.0497 101.084L33.4246 93.4615C33.009 93.2305 32.5989 92.994 32.1942 92.7465L27.8247 100.37Z" fill="#02474C"/>
<path d="M53.9758 99V107.8H55.3977V99H54.6868H53.9758Z" fill="#02474C"/>
<path d="M80.324 101.084L81.549 100.37L77.1741 92.7465C76.7694 92.994 76.3592 93.2305 75.9436 93.4615L80.324 101.084Z" fill="#02474C"/>
<path d="M99.7978 82.016L100.509 80.784L92.9292 76.384C92.6995 76.802 92.4644 77.2145 92.2183 77.6215L99.7978 82.016Z" fill="#02474C"/>
<path d="M98.4363 55.715H107.186V54.285H98.4363C98.4363 54.5215 98.4363 54.7635 98.4363 55C98.4363 55.2365 98.4363 55.4785 98.4363 55.715Z" fill="#02474C"/>
<path d="M100.509 29.216L99.7978 27.984L92.2183 32.384C92.4644 32.791 92.6995 33.2035 92.9292 33.6215L100.509 29.216Z" fill="#02474C"/>
<path d="M81.5489 9.6305L80.3239 8.9155L75.949 16.5385C76.3646 16.7695 76.7747 17.006 77.1794 17.2535L81.5489 9.6305Z" fill="#02474C"/>
<path d="M150.082 36.19C150.279 25.993 142.896 30.943 142.896 24.508C142.896 19.954 148.606 19.25 152.029 19.25H184.119C211.463 19.25 220.437 36.3 220.437 54.098C220.437 72.512 209.707 89.848 184.808 89.848C180.576 89.848 177.032 89.749 173.98 89.551C170.929 89.452 168.271 89.353 165.515 89.353C162.759 89.353 159.904 89.452 157.148 89.551C154.413 89.749 151.635 89.848 148.781 89.848C145.434 89.848 141.201 88.165 141.201 84.205C141.201 77.055 148.978 84.997 149.273 70.543L150.082 36.19ZM173.707 72.424C173.707 77.473 174.494 79.574 179.81 79.574C192.213 79.574 194.373 66.803 194.373 56.903C194.373 33.737 185.716 30.074 178.137 30.074C174.002 30.074 173.707 31.757 173.707 35.519V72.424Z" fill="#02474C"/>
<path d="M252.844 71.038C252.844 82.72 258.652 78.463 258.652 83.688C258.652 90.42 246.151 90.42 241.699 90.42C224.774 90.42 224.085 86.57 224.085 84.183C224.085 80.619 228.12 80.421 229.302 77.352C230.581 73.887 230.778 59.532 229.695 55.869C228.81 52.404 223.789 53.493 223.789 49.038C223.811 42.031 248.825 39.05 249.793 39.05C252.746 39.05 252.844 41.327 252.844 43.406V71.038ZM233.359 35.893C229.225 35.893 224.796 34.012 224.796 29.161C224.796 22.627 237.789 19.954 242.809 19.954C246.741 19.954 252.352 21.241 252.352 26.191C252.352 33.913 238.981 35.893 233.359 35.893Z" fill="#02474C"/>
<path d="M266.631 61.732C266.631 55.396 265.351 53.614 264.367 52.723C263.087 51.623 261.709 51.733 261.709 49.159C261.709 41.833 286.116 39.061 286.318 39.061C288.779 39.061 288.981 41.261 288.981 43.318C288.981 44.506 288.582 47.872 290.649 47.872C291.634 47.872 293.209 45.672 295.965 43.417C299.495 40.5382 303.916 38.9932 308.461 39.05C320.175 39.05 320.273 47.85 322.34 47.85C323.128 47.85 324.9 45.65 327.754 43.395C330.707 41.195 334.645 39.039 339.665 39.039C349.016 39.039 354.824 44.187 354.824 53.889V74.789C354.824 80.531 358.466 81.026 358.466 83.897C358.466 90.134 347.245 90.431 343.406 90.431C340.157 90.431 328.739 89.738 328.739 84.59C328.739 80.927 332.184 81.026 332.184 75.284V66.385C332.184 62.227 332.676 53.911 327.065 53.911C321.553 53.911 322.045 60.643 322.045 64.306V70.444C322.045 82.621 325.589 80.542 325.589 84.194C325.589 90.332 313.776 90.431 310.233 90.431C295.369 90.431 294.581 87.681 294.68 84.887C294.778 79.64 299.7 83.787 299.405 72.017V66.385C299.405 62.821 299.897 53.911 294.286 53.911C288.773 53.911 289.266 60.643 289.266 64.306V72.325C289.266 81.433 291.923 80.839 291.923 84.425C291.923 86.999 289.659 90.475 276.174 90.475C272.346 90.475 260.725 90.574 260.725 85.327C260.725 80.872 266.631 83.248 266.631 70.873V61.732Z" fill="#02474C"/>
<path d="M385.542 66.583C384.448 66.583 382.884 66.286 382.884 67.969C382.884 72.919 389.282 77.077 393.909 77.077C401.291 77.077 404.934 72.622 407.001 72.622C409.068 72.622 410.829 75.691 410.829 77.572C410.829 85.195 396.949 90.739 388.09 90.739C370.372 90.739 361.217 77.869 361.217 65.098C361.217 49.852 374.112 38.764 388.878 38.764C405.612 38.764 412.994 51.733 412.994 59.158C412.994 65.692 410.041 66.583 406.891 66.583H385.542ZM394.106 54.109C394.106 50.545 391.918 47.773 388.298 47.773C385.05 47.773 382.392 51.139 382.392 54.307C382.392 57.871 385.739 57.057 388.298 57.057C390.95 57.079 394.1 57.673 394.1 54.109H394.106Z" fill="#02474C"/>
</g>
<defs>
<clipPath id="clip0_29_14">
<rect width="413" height="110" fill="white"/>
</clipPath>
</defs>
</svg>
