<svg width="34" height="34" viewBox="0 0 34 34" fill="none" xmlns="http://www.w3.org/2000/svg">
<path d="M17.0011 0.334503C26.2059 0.334503 33.6678 7.79642 33.6678 17.0012C33.6678 26.2059 26.2059 33.6678 17.0011 33.6678C7.79639 33.6678 0.334473 26.2059 0.334473 17.0012C0.334473 7.79642 7.79639 0.334503 17.0011 0.334503ZM18.3017 9.44945L18.1615 9.32842C17.7265 9.00567 17.1295 9.00168 16.6905 9.31646L16.5339 9.44945L16.4129 9.58964C16.0901 10.0246 16.0862 10.6216 16.4009 11.0606L16.5339 11.2172L21.0666 15.75H9.91663L9.74701 15.7614C9.19236 15.8367 8.75329 16.2757 8.67804 16.8304L8.66663 17L8.67804 17.1696C8.75329 17.7243 9.19236 18.1633 9.74701 18.2386L9.91663 18.25H21.0666L16.5329 22.784L16.4119 22.9242C16.0487 23.4134 16.0889 24.1079 16.5326 24.5517C16.9763 24.9956 17.6707 25.0361 18.1601 24.6731L18.3003 24.5521L24.9696 17.8854L25.0906 17.7452C25.4135 17.3102 25.4175 16.7131 25.1027 16.2741L24.9697 16.1175L18.3017 9.44945L18.1615 9.32842L18.3017 9.44945Z" fill="#02383C"/>
</svg>
