<svg width="38" height="38" viewBox="0 0 38 38" fill="none" xmlns="http://www.w3.org/2000/svg">
<path d="M30.9792 0.25C34.7186 0.25 37.75 3.28141 37.75 7.02083V30.9792C37.75 34.7186 34.7186 37.75 30.9792 37.75H7.02083C3.28141 37.75 0.25 34.7186 0.25 30.9792V7.02083C0.25 3.28141 3.28141 0.25 7.02083 0.25H30.9792ZM30.9792 3.375H7.02083C5.0073 3.375 3.375 5.0073 3.375 7.02083V21.0833H12.75C13.541 21.0833 14.1948 21.6712 14.2982 22.4338L14.3125 22.6458C14.3125 25.2347 16.4112 27.3333 19 27.3333C21.5888 27.3333 23.6875 25.2347 23.6875 22.6458C23.6875 21.7829 24.3871 21.0833 25.25 21.0833H34.625V7.02083C34.625 5.10797 33.1519 3.53918 31.2782 3.38709L30.9792 3.375Z" fill="#06BECC"/>
</svg>
