<svg width="42" height="42" viewBox="0 0 42 42" fill="none" xmlns="http://www.w3.org/2000/svg">
<path d="M21.0001 0.166504C32.506 0.166504 41.8334 9.49391 41.8334 20.9998C41.8334 32.5058 32.506 41.8332 21.0001 41.8332C9.49415 41.8332 0.166748 32.5058 0.166748 20.9998C0.166748 9.49391 9.49415 0.166504 21.0001 0.166504ZM27.7077 14.6867L18.3959 23.9985L14.2924 19.895C13.6822 19.2848 12.6929 19.2848 12.0827 19.895C11.4725 20.5052 11.4725 21.4945 12.0827 22.1047L17.2911 27.313C17.9013 27.9232 18.8906 27.9232 19.5008 27.313L29.9174 16.8964C30.5276 16.2862 30.5276 15.2968 29.9174 14.6867C29.3072 14.0765 28.3179 14.0765 27.7077 14.6867Z" fill="#06BECC"/>
</svg>
