<svg width="14" height="15" viewBox="0 0 14 15" fill="none" xmlns="http://www.w3.org/2000/svg">
<path d="M6.99998 0.833336C10.6819 0.833336 13.6666 3.8181 13.6666 7.5C13.6666 11.1819 10.6819 14.1667 6.99998 14.1667C3.31808 14.1667 0.333313 11.1819 0.333313 7.5C0.333313 3.8181 3.31808 0.833336 6.99998 0.833336ZM9.14643 5.47978L6.16665 8.45956L4.85353 7.14645C4.65827 6.95119 4.34169 6.95119 4.14643 7.14645C3.95116 7.34171 3.95116 7.65829 4.14643 7.85356L5.81309 9.52022C6.00836 9.71548 6.32494 9.71548 6.5202 9.52022L9.85353 6.18689C10.0488 5.99163 10.0488 5.67505 9.85353 5.47978C9.65827 5.28452 9.34169 5.28452 9.14643 5.47978Z" fill="#02464B"/>
</svg>
