<svg width="195" height="143" viewBox="0 0 195 143" fill="none" xmlns="http://www.w3.org/2000/svg">
<g clip-path="url(#clip0_29_16)">
<path d="M97.502 0C89.7415 0 82.1552 2.29788 75.7026 6.60306C69.25 10.9082 64.2208 17.0274 61.251 24.1866C58.2812 31.3459 57.5041 39.2237 59.0181 46.8239C60.5321 54.4241 64.2692 61.4054 69.7567 66.8848C75.2442 72.3643 82.2357 76.0958 89.8471 77.6076C97.4584 79.1194 105.348 78.3435 112.518 75.378C119.687 72.4126 125.815 67.3908 130.127 60.9476C134.438 54.5044 136.74 46.9293 136.74 39.1802C136.74 28.789 132.606 18.8233 125.247 11.4756C117.889 4.12791 107.908 0 97.502 0V0ZM97.502 76.7932C90.0519 76.7932 82.7691 74.5873 76.5746 70.4543C70.3801 66.3213 65.552 60.447 62.701 53.5741C59.85 46.7012 59.104 39.1385 60.5575 31.8423C62.0109 24.5461 65.5985 17.8441 70.8665 12.5838C76.1345 7.32353 82.8463 3.74124 90.1532 2.28993C97.4602 0.838626 105.034 1.58349 111.917 4.43033C118.8 7.27717 124.683 12.0981 128.822 18.2836C132.961 24.469 135.17 31.7411 135.17 39.1802C135.17 49.1558 131.202 58.7228 124.137 65.7766C117.073 72.8305 107.492 76.7932 97.502 76.7932Z" fill="#02474C"/>
<path d="M124.98 39.6896V38.6709H128.904C128.828 33.5142 127.473 28.4569 124.961 23.9509L121.574 25.9099L121.064 25.0283L124.451 23.0693C121.79 18.6482 118.084 14.947 113.656 12.2908L111.694 15.6721L110.811 15.1627L112.773 11.7815C108.258 9.2775 103.192 7.93127 98.0278 7.86347V11.7541H97.0115V7.83604C91.8458 7.91033 86.7793 9.26329 82.266 11.7737L84.2279 15.1549L83.3215 15.6721L81.3596 12.2908C76.9322 14.946 73.2266 18.6475 70.5692 23.0693L73.9554 25.0283L73.4453 25.9099L70.0591 23.9509C67.5452 28.4562 66.1903 33.514 66.1157 38.6709H70.0199V39.6896H66.1157C66.1915 44.8468 67.5478 49.9046 70.063 54.4096L73.4493 52.4506L73.9594 53.3321L70.5731 55.2911C73.2305 59.713 76.9361 63.4145 81.3635 66.0696L83.3254 62.6884L84.2043 63.1977L82.2425 66.579C86.7575 69.0825 91.824 70.4287 96.988 70.497V66.6064H98.0043V70.5244C103.168 70.4566 108.235 69.1104 112.75 66.6064L110.788 63.2251L111.671 62.7158L113.633 66.097C118.06 63.4409 121.767 59.7397 124.427 55.3186L121.041 53.3596L121.551 52.478L124.937 54.437C127.449 49.931 128.804 44.8736 128.88 39.717L124.98 39.6896Z" fill="#02474C"/>
<path d="M98.0081 7.83604V1.56721H96.9918V7.83604H97.5019H98.0081Z" fill="#02474C"/>
<path d="M79.1073 6.35111L78.2245 6.86046L81.3635 12.2908C81.6539 12.1145 81.9482 11.946 82.2464 11.7815L79.1073 6.35111Z" fill="#02474C"/>
<path d="M65.1347 19.9349L64.6246 20.8125L70.063 23.947C70.2278 23.6492 70.3965 23.3553 70.5731 23.0654L65.1347 19.9349Z" fill="#02474C"/>
<path d="M66.1157 38.6709H59.8376V39.6896H66.1157C66.1157 39.5211 66.1157 39.3487 66.1157 39.1802C66.1157 39.0118 66.1157 38.8394 66.1157 38.6709Z" fill="#02474C"/>
<path d="M64.6246 57.5479L65.1347 58.4256L70.5731 55.2911C70.3965 55.0012 70.2278 54.7074 70.063 54.4096L64.6246 57.5479Z" fill="#02474C"/>
<path d="M78.2245 71.5L79.1073 72.0093L82.2464 66.579C81.9482 66.4144 81.6539 66.2459 81.3635 66.0696L78.2245 71.5Z" fill="#02474C"/>
<path d="M96.9918 70.5244V76.7932H98.0081V70.5244H97.5019H96.9918Z" fill="#02474C"/>
<path d="M115.893 72.0093L116.776 71.5L113.637 66.0696C113.346 66.2459 113.052 66.4144 112.754 66.579L115.893 72.0093Z" fill="#02474C"/>
<path d="M129.877 58.4256L130.383 57.5479L124.949 54.4135C124.78 54.7113 124.611 55.0051 124.439 55.2951L129.877 58.4256Z" fill="#02474C"/>
<path d="M128.884 39.6896H135.162V38.6709H128.884C128.884 38.8394 128.884 39.0118 128.884 39.1802C128.884 39.3487 128.888 39.5211 128.884 39.6896Z" fill="#02474C"/>
<path d="M130.375 20.8125L129.877 19.9349L124.439 23.0693C124.611 23.3592 124.78 23.6531 124.949 23.9509L130.375 20.8125Z" fill="#02474C"/>
<path d="M116.776 6.86046L115.893 6.35111L112.754 11.7815C113.052 11.946 113.346 12.1145 113.637 12.2908L116.776 6.86046Z" fill="#02474C"/>
<path d="M6.35652 104.141C6.49778 96.877 1.20068 100.403 1.20068 95.8192C1.20068 92.575 5.2971 92.0814 7.76908 92.0814H30.7938C50.4127 92.0814 56.8516 104.227 56.8516 116.906C56.8516 130.024 49.1571 142.373 31.2882 142.373C28.2512 142.373 25.7086 142.303 23.5191 142.162C21.3297 142.091 19.4227 142.021 17.4451 142.021C15.4675 142.021 13.4193 142.091 11.4417 142.162C9.47985 142.303 7.48657 142.373 5.43836 142.373C3.037 142.365 0 141.166 0 138.345C0 133.252 5.57961 138.91 5.7915 128.613L6.35652 104.141ZM23.3072 129.953C23.3072 133.55 23.8723 135.046 27.6862 135.046C36.5853 135.046 38.1391 125.949 38.1391 118.896C38.1391 102.394 31.9239 99.7842 26.4855 99.7842C23.5191 99.7842 23.3072 100.983 23.3072 103.663V129.953Z" fill="#02474C"/>
<path d="M80.0921 128.966C80.0921 137.288 84.2552 134.255 84.2552 137.977C84.2552 142.773 75.2894 142.773 72.1111 142.773C59.9474 142.773 59.4687 140.03 59.4687 138.33C59.4687 135.791 62.3645 135.65 63.212 133.464C64.1302 130.995 64.2714 120.769 63.4945 118.16C62.8589 115.691 59.2568 116.467 59.2568 113.294C59.2568 108.286 77.1924 106.171 77.9026 106.171C80.0215 106.171 80.0921 107.793 80.0921 109.274V128.966ZM66.1077 103.929C63.1414 103.929 59.9631 102.59 59.9631 99.1338C59.9631 94.4792 69.286 92.575 72.888 92.575C75.7132 92.575 79.735 93.4919 79.735 97.0181C79.735 102.519 70.1335 103.929 66.1077 103.929Z" fill="#02474C"/>
<path d="M89.9801 122.336C89.9801 117.823 89.0619 116.553 88.3557 115.919C87.4375 115.135 86.4487 115.213 86.4487 113.38C86.4487 108.161 103.964 106.186 104.106 106.186C105.871 106.186 106.017 107.753 106.017 109.219C106.017 110.065 105.734 112.463 107.213 112.463C107.924 112.463 109.05 110.896 111.031 109.289C113.562 107.238 116.733 106.137 119.993 106.178C128.398 106.178 128.468 112.447 129.952 112.447C130.517 112.447 131.788 110.88 133.836 109.274C135.955 107.706 138.78 106.171 142.382 106.171C149.092 106.171 153.259 109.838 153.259 116.749V131.638C153.259 135.728 155.872 136.081 155.872 138.126C155.872 142.569 147.821 142.781 145.066 142.781C142.735 142.781 134.542 142.287 134.542 138.62C134.542 136.01 137.014 136.081 137.014 131.99V125.651C137.014 122.689 137.368 116.765 133.342 116.765C129.387 116.765 129.74 121.561 129.74 124.17V128.542C129.74 137.217 132.282 135.736 132.282 138.338C132.282 142.71 123.807 142.781 121.264 142.781C110.603 142.781 110.038 140.822 110.109 138.831C110.176 135.093 113.707 138.048 113.495 129.663V125.651C113.495 123.112 113.848 116.765 109.823 116.765C105.867 116.765 106.221 121.561 106.221 124.17V129.882C106.221 136.371 108.128 135.948 108.128 138.502C108.128 140.336 106.507 142.812 96.831 142.812C94.0844 142.812 85.7424 142.882 85.7424 139.145C85.7424 135.971 89.9801 137.664 89.9801 128.848V122.336Z" fill="#02474C"/>
<path d="M175.295 125.792C174.51 125.792 173.388 125.58 173.388 126.779C173.388 130.306 177.979 133.268 181.298 133.268C186.595 133.268 189.208 130.094 190.692 130.094C192.175 130.094 193.438 132.28 193.438 133.62C193.442 139.051 183.488 143.008 177.131 143.008C164.422 143.008 157.85 133.84 157.85 124.742C157.85 113.881 167.106 105.983 177.696 105.983C189.703 105.983 195 115.221 195 120.511C195 125.165 192.881 125.8 190.621 125.8L175.295 125.792ZM181.439 116.906C181.439 114.367 179.87 112.392 177.272 112.392C174.942 112.392 173.035 114.79 173.035 117.047C173.035 119.586 175.436 119.006 177.272 119.006C179.179 119.022 181.439 119.445 181.439 116.906Z" fill="#02474C"/>
</g>
<defs>
<clipPath id="clip0_29_16">
<rect width="195" height="143" fill="white"/>
</clipPath>
</defs>
</svg>
