<svg width="120" height="120" viewBox="0 0 120 120" fill="none" xmlns="http://www.w3.org/2000/svg">
<g clip-path="url(#clip0_29_15)">
<path d="M60 0C48.1331 0 36.5327 3.51894 26.6657 10.1118C16.7988 16.7047 9.10844 26.0754 4.56718 37.039C0.025921 48.0026 -1.16228 60.0665 1.15283 71.7054C3.46795 83.3443 9.18239 94.0352 17.5735 102.426C25.9647 110.818 36.6557 116.532 48.2945 118.847C59.9334 121.162 71.9974 119.974 82.961 115.433C93.9245 110.891 103.295 103.201 109.888 93.3342C116.481 83.4672 120 71.8669 120 60C120 44.087 113.679 28.8258 102.426 17.5736C91.1742 6.32141 75.9129 0 60 0V0ZM60 117.599C48.6079 117.599 37.4717 114.221 27.9996 107.892C18.5274 101.563 11.1448 92.5671 6.78527 82.0422C2.42573 71.5174 1.28507 59.9361 3.50755 48.763C5.73002 37.5898 11.2158 27.3266 19.2712 19.2712C27.3266 11.2159 37.5898 5.73007 48.7629 3.5076C59.9361 1.28512 71.5173 2.42578 82.0422 6.78532C92.5671 11.1449 101.563 18.5275 107.892 27.9996C114.221 37.4717 117.599 48.608 117.599 60C117.599 75.2762 111.531 89.9268 100.729 100.729C89.9268 111.531 75.2762 117.599 60 117.599Z" fill="#02474C"/>
<path d="M102.018 60.778V59.222H108.003C107.885 51.3291 105.814 43.5883 101.973 36.6921L96.7942 39.6808L96.0127 38.3325L101.191 35.3438C97.1241 28.5746 91.4571 22.9076 84.6879 18.8406L81.671 23.9979L80.3333 23.234L83.3255 18.0556C76.4289 14.2155 68.6884 12.1437 60.7956 12.0253V18.0099H59.2396V12.0253C51.3467 12.1427 43.6059 14.2145 36.7097 18.0556L39.6632 23.234L38.3149 24.012L35.3262 18.8371C28.5565 22.9034 22.8893 28.5705 18.823 35.3403L23.9979 38.329L23.234 39.6632L18.0556 36.6745C14.2145 43.5707 12.1427 51.3115 12.0253 59.2044H18.0099V60.7604H12.0253C12.1437 68.6532 14.2155 76.3937 18.0556 83.2903L23.234 80.3332L23.9979 81.671L18.823 84.6597C22.89 91.4289 28.557 97.0959 35.3262 101.163L38.3149 95.9845L39.6632 96.766L36.6745 101.944C43.5707 105.785 51.3115 107.857 59.2044 107.975V101.99H60.7604V107.975C68.6532 107.856 76.3937 105.784 83.2903 101.944L80.298 96.766L81.671 95.9986L84.6597 101.177C91.4279 97.1087 97.0947 91.442 101.163 84.6738L95.9986 81.671L96.7801 80.3192L101.958 83.3114C105.799 76.4148 107.87 68.6743 107.989 60.7815L102.018 60.778Z" fill="#02474C"/>
<path d="M60.778 12.0113V2.40084H59.222V12.0113C59.479 12.0113 59.7395 12.0113 60 12.0113C60.2605 12.0113 60.5175 12.0042 60.778 12.0113Z" fill="#02474C"/>
<path d="M31.8728 9.72659L30.5245 10.5081L35.3262 18.823C35.7698 18.5555 36.2192 18.295 36.6745 18.0415L31.8728 9.72659Z" fill="#02474C"/>
<path d="M10.5046 30.5245L9.72659 31.8728L18.0415 36.6745C18.295 36.2192 18.5555 35.7698 18.823 35.3262L10.5046 30.5245Z" fill="#02474C"/>
<path d="M12.0113 59.222H2.40084V60.778H12.0113C12.0113 60.5175 12.0113 60.2605 12.0113 60C12.0113 59.7395 12.0042 59.4931 12.0113 59.222Z" fill="#02474C"/>
<path d="M9.72659 88.1237L10.5046 89.4755L18.823 84.6738C18.5555 84.2267 18.295 83.7796 18.0415 83.3255L9.72659 88.1237Z" fill="#02474C"/>
<path d="M30.5245 109.481L31.8728 110.259L36.6745 101.948C36.2192 101.694 35.7698 101.434 35.3262 101.166L30.5245 109.481Z" fill="#02474C"/>
<path d="M59.222 107.989V117.599H60.778V107.989C60.5175 107.989 60.2605 107.989 60 107.989C59.7395 107.989 59.4931 107.992 59.222 107.989Z" fill="#02474C"/>
<path d="M88.1237 110.27L89.4755 109.492L84.6738 101.177C84.2267 101.444 83.7796 101.705 83.3255 101.958L88.1237 110.27Z" fill="#02474C"/>
<path d="M109.481 89.4755L110.259 88.1237L101.958 83.3255C101.705 83.7796 101.444 84.2267 101.177 84.6738L109.481 89.4755Z" fill="#02474C"/>
<path d="M107.989 60.778H117.599V59.222H107.989C107.989 59.479 107.989 59.7395 107.989 60C107.989 60.2605 107.992 60.5175 107.989 60.778Z" fill="#02474C"/>
<path d="M110.27 31.8728L109.481 30.5245L101.166 35.3262C101.434 35.7698 101.694 36.2192 101.948 36.6745L110.27 31.8728Z" fill="#02474C"/>
<path d="M89.4755 10.5081L88.1237 9.72659L83.3255 18.0415C83.7796 18.295 84.2267 18.5555 84.6738 18.823L89.4755 10.5081Z" fill="#02474C"/>
</g>
<defs>
<clipPath id="clip0_29_15">
<rect width="120" height="120" fill="white"/>
</clipPath>
</defs>
</svg>
