<svg width="20" height="20" viewBox="0 0 28 24" fill="none" xmlns="http://www.w3.org/2000/svg">
<path d="M8.84059 23.9009C19.3369 23.9009 25.0769 14.744 25.0769 6.80339C25.0769 6.5433 25.0718 6.28439 25.0607 6.02665C26.175 5.17844 27.1434 4.11994 27.9072 2.91498C26.8848 3.39356 25.7845 3.71574 24.6302 3.86101C25.8083 3.11707 26.7128 1.94024 27.1396 0.537333C26.037 1.22563 24.816 1.72588 23.516 1.99597C22.4747 0.82796 20.9922 0.0974121 19.3506 0.0974121C16.1993 0.0974121 13.6438 2.78853 13.6438 6.10572C13.6438 6.57727 13.6939 7.03594 13.7918 7.4759C9.04907 7.22459 4.84357 4.83343 2.02901 1.19751C1.53894 2.08554 1.25635 3.1171 1.25635 4.21778C1.25635 6.30258 2.26379 8.14305 3.79576 9.21976C2.85954 9.1893 1.98006 8.91866 1.21136 8.46819C1.21052 8.4934 1.21052 8.51799 1.21052 8.54493C1.21052 11.4551 3.17752 13.8849 5.78862 14.4355C5.30911 14.5731 4.8046 14.647 4.2839 14.647C3.91676 14.647 3.55907 14.6089 3.2114 14.5386C3.93789 16.9262 6.04453 18.6637 8.54213 18.7122C6.58904 20.3243 4.12868 21.2844 1.45468 21.2844C0.994643 21.2844 0.540171 21.2569 0.0935059 21.2012C2.61901 22.9059 5.61782 23.9005 8.8409 23.9005" fill="#1DA1F2"/>
</svg>
